<svg width="1140" height="294" viewBox="0 0 1140 294" fill="none" xmlns="http://www.w3.org/2000/svg">
<path d="M0 97C0 74.9086 17.9086 57 40 57H1132C1136.42 57 1140 60.5817 1140 65V244C1140 266.091 1122.09 284 1100 284H8.00001C3.58173 284 0 280.418 0 276V97Z" fill="#5E50A1"/>
<path d="M71.3926 156V130.301H75.5938V152.396H86.4746V156H71.3926ZM107.709 146.244C107.709 149.42 106.895 151.898 105.266 153.68C103.637 155.461 101.369 156.352 98.4629 156.352C96.6465 156.352 95.041 155.941 93.6465 155.121C92.252 154.301 91.1797 153.123 90.4297 151.588C89.6797 150.053 89.3047 148.271 89.3047 146.244C89.3047 143.092 90.1133 140.631 91.7305 138.861C93.3477 137.092 95.627 136.207 98.5684 136.207C101.381 136.207 103.607 137.115 105.248 138.932C106.889 140.736 107.709 143.174 107.709 146.244ZM93.5586 146.244C93.5586 150.732 95.2168 152.977 98.5332 152.977C101.814 152.977 103.455 150.732 103.455 146.244C103.455 141.803 101.803 139.582 98.498 139.582C96.7637 139.582 95.5039 140.156 94.7188 141.305C93.9453 142.453 93.5586 144.1 93.5586 146.244ZM122.334 136.207C123.166 136.207 123.852 136.266 124.391 136.383L123.986 140.232C123.4 140.092 122.791 140.021 122.158 140.021C120.506 140.021 119.164 140.561 118.133 141.639C117.113 142.717 116.604 144.117 116.604 145.84V156H112.473V136.559H115.707L116.252 139.986H116.463C117.107 138.826 117.945 137.906 118.977 137.227C120.02 136.547 121.139 136.207 122.334 136.207ZM136.502 156.352C133.479 156.352 131.111 155.473 129.4 153.715C127.701 151.945 126.852 149.514 126.852 146.42C126.852 143.244 127.643 140.748 129.225 138.932C130.807 137.115 132.98 136.207 135.746 136.207C138.312 136.207 140.34 136.986 141.828 138.545C143.316 140.104 144.061 142.248 144.061 144.979V147.211H131.105C131.164 149.098 131.674 150.551 132.635 151.57C133.596 152.578 134.949 153.082 136.695 153.082C137.844 153.082 138.91 152.977 139.895 152.766C140.891 152.543 141.957 152.18 143.094 151.676V155.033C142.086 155.514 141.066 155.854 140.035 156.053C139.004 156.252 137.826 156.352 136.502 156.352ZM135.746 139.336C134.434 139.336 133.379 139.752 132.582 140.584C131.797 141.416 131.328 142.629 131.176 144.223H140C139.977 142.617 139.59 141.404 138.84 140.584C138.09 139.752 137.059 139.336 135.746 139.336ZM165.137 156H160.988V144.012C160.988 142.523 160.707 141.416 160.145 140.689C159.582 139.951 158.703 139.582 157.508 139.582C155.914 139.582 154.742 140.104 153.992 141.146C153.254 142.178 152.885 143.9 152.885 146.314V156H148.754V136.559H151.988L152.568 139.107H152.779C153.318 138.182 154.098 137.467 155.117 136.963C156.148 136.459 157.279 136.207 158.51 136.207C161.498 136.207 163.479 137.227 164.451 139.266H164.732C165.307 138.305 166.115 137.555 167.158 137.016C168.201 136.477 169.396 136.207 170.744 136.207C173.064 136.207 174.752 136.793 175.807 137.965C176.873 139.137 177.406 140.924 177.406 143.326V156H173.275V144.012C173.275 142.523 172.988 141.416 172.414 140.689C171.852 139.951 170.973 139.582 169.777 139.582C168.172 139.582 166.994 140.086 166.244 141.094C165.506 142.09 165.137 143.625 165.137 145.699V156ZM196.654 156H192.523V136.559H196.654V156ZM192.277 131.408C192.277 130.67 192.477 130.102 192.875 129.703C193.285 129.305 193.865 129.105 194.615 129.105C195.342 129.105 195.904 129.305 196.303 129.703C196.713 130.102 196.918 130.67 196.918 131.408C196.918 132.111 196.713 132.668 196.303 133.078C195.904 133.477 195.342 133.676 194.615 133.676C193.865 133.676 193.285 133.477 192.875 133.078C192.477 132.668 192.277 132.111 192.277 131.408ZM212.439 156.352C209.979 156.352 208.068 155.467 206.709 153.697H206.463C206.627 155.338 206.709 156.334 206.709 156.686V164.648H202.578V136.559H205.918C206.012 136.922 206.205 137.789 206.498 139.16H206.709C207.998 137.191 209.932 136.207 212.51 136.207C214.936 136.207 216.822 137.086 218.17 138.844C219.529 140.602 220.209 143.068 220.209 146.244C220.209 149.42 219.518 151.898 218.135 153.68C216.764 155.461 214.865 156.352 212.439 156.352ZM211.438 139.582C209.797 139.582 208.596 140.062 207.834 141.023C207.084 141.984 206.709 143.52 206.709 145.629V146.244C206.709 148.611 207.084 150.328 207.834 151.395C208.584 152.449 209.809 152.977 211.508 152.977C212.938 152.977 214.039 152.391 214.812 151.219C215.586 150.047 215.973 148.377 215.973 146.209C215.973 144.029 215.586 142.383 214.812 141.27C214.051 140.145 212.926 139.582 211.438 139.582ZM238.068 150.463C238.068 152.361 237.377 153.82 235.994 154.84C234.611 155.848 232.631 156.352 230.053 156.352C227.463 156.352 225.383 155.959 223.812 155.174V151.605C226.098 152.66 228.225 153.188 230.193 153.188C232.736 153.188 234.008 152.42 234.008 150.885C234.008 150.393 233.867 149.982 233.586 149.654C233.305 149.326 232.842 148.986 232.197 148.635C231.553 148.283 230.656 147.885 229.508 147.439C227.27 146.572 225.752 145.705 224.955 144.838C224.17 143.971 223.777 142.846 223.777 141.463C223.777 139.799 224.445 138.51 225.781 137.596C227.129 136.67 228.957 136.207 231.266 136.207C233.551 136.207 235.713 136.67 237.752 137.596L236.416 140.707C234.318 139.84 232.555 139.406 231.125 139.406C228.945 139.406 227.855 140.027 227.855 141.27C227.855 141.879 228.137 142.395 228.699 142.816C229.273 143.238 230.516 143.818 232.426 144.557C234.031 145.178 235.197 145.746 235.924 146.262C236.65 146.777 237.189 147.375 237.541 148.055C237.893 148.723 238.068 149.525 238.068 150.463ZM256.262 156L255.682 153.451H255.471C254.896 154.354 254.076 155.062 253.01 155.578C251.955 156.094 250.748 156.352 249.389 156.352C247.033 156.352 245.275 155.766 244.115 154.594C242.955 153.422 242.375 151.646 242.375 149.268V136.559H246.541V148.547C246.541 150.035 246.846 151.154 247.455 151.904C248.064 152.643 249.02 153.012 250.32 153.012C252.055 153.012 253.326 152.496 254.135 151.465C254.955 150.422 255.365 148.682 255.365 146.244V136.559H259.514V156H256.262ZM281.785 156H277.637V144.012C277.637 142.523 277.355 141.416 276.793 140.689C276.23 139.951 275.352 139.582 274.156 139.582C272.562 139.582 271.391 140.104 270.641 141.146C269.902 142.178 269.533 143.9 269.533 146.314V156H265.402V136.559H268.637L269.217 139.107H269.428C269.967 138.182 270.746 137.467 271.766 136.963C272.797 136.459 273.928 136.207 275.158 136.207C278.146 136.207 280.127 137.227 281.1 139.266H281.381C281.955 138.305 282.764 137.555 283.807 137.016C284.85 136.477 286.045 136.207 287.393 136.207C289.713 136.207 291.4 136.793 292.455 137.965C293.521 139.137 294.055 140.924 294.055 143.326V156H289.924V144.012C289.924 142.523 289.637 141.416 289.062 140.689C288.5 139.951 287.621 139.582 286.426 139.582C284.82 139.582 283.643 140.086 282.893 141.094C282.154 142.09 281.785 143.625 281.785 145.699V156ZM77.5098 212.352C75.084 212.352 73.1914 211.473 71.832 209.715C70.4727 207.957 69.793 205.49 69.793 202.314C69.793 199.127 70.4785 196.648 71.8496 194.879C73.2324 193.098 75.1426 192.207 77.5801 192.207C80.1348 192.207 82.0801 193.15 83.416 195.037H83.627C83.4277 193.643 83.3281 192.541 83.3281 191.732V184.648H87.4766V212H84.2422L83.5215 209.451H83.3281C82.0039 211.385 80.0645 212.352 77.5098 212.352ZM78.6172 209.012C80.3164 209.012 81.5527 208.537 82.3262 207.588C83.0996 206.627 83.498 205.074 83.5215 202.93V202.35C83.5215 199.9 83.123 198.16 82.3262 197.129C81.5293 196.098 80.2812 195.582 78.582 195.582C77.1289 195.582 76.0098 196.174 75.2246 197.357C74.4395 198.529 74.0469 200.205 74.0469 202.385C74.0469 204.541 74.4277 206.188 75.1895 207.324C75.9512 208.449 77.0938 209.012 78.6172 209.012ZM110.627 202.244C110.627 205.42 109.812 207.898 108.184 209.68C106.555 211.461 104.287 212.352 101.381 212.352C99.5645 212.352 97.959 211.941 96.5645 211.121C95.1699 210.301 94.0977 209.123 93.3477 207.588C92.5977 206.053 92.2227 204.271 92.2227 202.244C92.2227 199.092 93.0312 196.631 94.6484 194.861C96.2656 193.092 98.5449 192.207 101.486 192.207C104.299 192.207 106.525 193.115 108.166 194.932C109.807 196.736 110.627 199.174 110.627 202.244ZM96.4766 202.244C96.4766 206.732 98.1348 208.977 101.451 208.977C104.732 208.977 106.373 206.732 106.373 202.244C106.373 197.803 104.721 195.582 101.416 195.582C99.6816 195.582 98.4219 196.156 97.6367 197.305C96.8633 198.453 96.4766 200.1 96.4766 202.244ZM119.521 212H115.391V184.648H119.521V212ZM142.689 202.244C142.689 205.42 141.875 207.898 140.246 209.68C138.617 211.461 136.35 212.352 133.443 212.352C131.627 212.352 130.021 211.941 128.627 211.121C127.232 210.301 126.16 209.123 125.41 207.588C124.66 206.053 124.285 204.271 124.285 202.244C124.285 199.092 125.094 196.631 126.711 194.861C128.328 193.092 130.607 192.207 133.549 192.207C136.361 192.207 138.588 193.115 140.229 194.932C141.869 196.736 142.689 199.174 142.689 202.244ZM128.539 202.244C128.539 206.732 130.197 208.977 133.514 208.977C136.795 208.977 138.436 206.732 138.436 202.244C138.436 197.803 136.783 195.582 133.479 195.582C131.744 195.582 130.484 196.156 129.699 197.305C128.926 198.453 128.539 200.1 128.539 202.244ZM157.314 192.207C158.146 192.207 158.832 192.266 159.371 192.383L158.967 196.232C158.381 196.092 157.771 196.021 157.139 196.021C155.486 196.021 154.145 196.561 153.113 197.639C152.094 198.717 151.584 200.117 151.584 201.84V212H147.453V192.559H150.688L151.232 195.986H151.443C152.088 194.826 152.926 193.906 153.957 193.227C155 192.547 156.119 192.207 157.314 192.207ZM185.404 206.463C185.404 208.361 184.713 209.82 183.33 210.84C181.947 211.848 179.967 212.352 177.389 212.352C174.799 212.352 172.719 211.959 171.148 211.174V207.605C173.434 208.66 175.561 209.188 177.529 209.188C180.072 209.188 181.344 208.42 181.344 206.885C181.344 206.393 181.203 205.982 180.922 205.654C180.641 205.326 180.178 204.986 179.533 204.635C178.889 204.283 177.992 203.885 176.844 203.439C174.605 202.572 173.088 201.705 172.291 200.838C171.506 199.971 171.113 198.846 171.113 197.463C171.113 195.799 171.781 194.51 173.117 193.596C174.465 192.67 176.293 192.207 178.602 192.207C180.887 192.207 183.049 192.67 185.088 193.596L183.752 196.707C181.654 195.84 179.891 195.406 178.461 195.406C176.281 195.406 175.191 196.027 175.191 197.27C175.191 197.879 175.473 198.395 176.035 198.816C176.609 199.238 177.852 199.818 179.762 200.557C181.367 201.178 182.533 201.746 183.26 202.262C183.986 202.777 184.525 203.375 184.877 204.055C185.229 204.723 185.404 205.525 185.404 206.463ZM194.018 212H189.887V192.559H194.018V212ZM189.641 187.408C189.641 186.67 189.84 186.102 190.238 185.703C190.648 185.305 191.229 185.105 191.979 185.105C192.705 185.105 193.268 185.305 193.666 185.703C194.076 186.102 194.281 186.67 194.281 187.408C194.281 188.111 194.076 188.668 193.666 189.078C193.268 189.477 192.705 189.676 191.979 189.676C191.229 189.676 190.648 189.477 190.238 189.078C189.84 188.668 189.641 188.111 189.641 187.408ZM207.184 209.012C208.191 209.012 209.199 208.854 210.207 208.537V211.648C209.75 211.848 209.158 212.012 208.432 212.141C207.717 212.281 206.973 212.352 206.199 212.352C202.285 212.352 200.328 210.289 200.328 206.164V195.688H197.674V193.859L200.521 192.348L201.928 188.234H204.477V192.559H210.014V195.688H204.477V206.094C204.477 207.09 204.723 207.828 205.215 208.309C205.719 208.777 206.375 209.012 207.184 209.012ZM235.625 212L234.799 209.293H234.658C233.721 210.477 232.777 211.285 231.828 211.719C230.879 212.141 229.66 212.352 228.172 212.352C226.262 212.352 224.768 211.836 223.689 210.805C222.623 209.773 222.09 208.314 222.09 206.428C222.09 204.424 222.834 202.912 224.322 201.893C225.811 200.873 228.078 200.316 231.125 200.223L234.482 200.117V199.08C234.482 197.838 234.189 196.912 233.604 196.303C233.029 195.682 232.133 195.371 230.914 195.371C229.918 195.371 228.963 195.518 228.049 195.811C227.135 196.104 226.256 196.449 225.412 196.848L224.076 193.895C225.131 193.344 226.285 192.928 227.539 192.646C228.793 192.354 229.977 192.207 231.09 192.207C233.562 192.207 235.426 192.746 236.68 193.824C237.945 194.902 238.578 196.596 238.578 198.904V212H235.625ZM229.473 209.188C230.973 209.188 232.174 208.771 233.076 207.939C233.99 207.096 234.447 205.918 234.447 204.406V202.719L231.951 202.824C230.006 202.895 228.588 203.223 227.697 203.809C226.818 204.383 226.379 205.268 226.379 206.463C226.379 207.33 226.637 208.004 227.152 208.484C227.668 208.953 228.441 209.188 229.473 209.188ZM260.727 212H256.578V200.012C256.578 198.523 256.297 197.416 255.734 196.689C255.172 195.951 254.293 195.582 253.098 195.582C251.504 195.582 250.332 196.104 249.582 197.146C248.844 198.178 248.475 199.9 248.475 202.314V212H244.344V192.559H247.578L248.158 195.107H248.369C248.908 194.182 249.688 193.467 250.707 192.963C251.738 192.459 252.869 192.207 254.1 192.207C257.088 192.207 259.068 193.227 260.041 195.266H260.322C260.896 194.305 261.705 193.555 262.748 193.016C263.791 192.477 264.986 192.207 266.334 192.207C268.654 192.207 270.342 192.793 271.396 193.965C272.463 195.137 272.996 196.924 272.996 199.326V212H268.865V200.012C268.865 198.523 268.578 197.416 268.004 196.689C267.441 195.951 266.562 195.582 265.367 195.582C263.762 195.582 262.584 196.086 261.834 197.094C261.096 198.09 260.727 199.625 260.727 201.699V212ZM287.252 212.352C284.229 212.352 281.861 211.473 280.15 209.715C278.451 207.945 277.602 205.514 277.602 202.42C277.602 199.244 278.393 196.748 279.975 194.932C281.557 193.115 283.73 192.207 286.496 192.207C289.062 192.207 291.09 192.986 292.578 194.545C294.066 196.104 294.811 198.248 294.811 200.979V203.211H281.855C281.914 205.098 282.424 206.551 283.385 207.57C284.346 208.578 285.699 209.082 287.445 209.082C288.594 209.082 289.66 208.977 290.645 208.766C291.641 208.543 292.707 208.18 293.844 207.676V211.033C292.836 211.514 291.816 211.854 290.785 212.053C289.754 212.252 288.576 212.352 287.252 212.352ZM286.496 195.336C285.184 195.336 284.129 195.752 283.332 196.584C282.547 197.416 282.078 198.629 281.926 200.223H290.75C290.727 198.617 290.34 197.404 289.59 196.584C288.84 195.752 287.809 195.336 286.496 195.336ZM306.746 209.012C307.754 209.012 308.762 208.854 309.77 208.537V211.648C309.312 211.848 308.721 212.012 307.994 212.141C307.279 212.281 306.535 212.352 305.762 212.352C301.848 212.352 299.891 210.289 299.891 206.164V195.688H297.236V193.859L300.084 192.348L301.49 188.234H304.039V192.559H309.576V195.688H304.039V206.094C304.039 207.09 304.285 207.828 304.777 208.309C305.281 208.777 305.938 209.012 306.746 209.012Z" fill="white"/>
<rect x="863" y="138" width="210" height="63.1059" rx="4" fill="white"/>
<path d="M893.273 175.662L890.523 166.701H890.453C890.552 168.524 890.602 169.74 890.602 170.349V175.662H888.438V164.24H891.734L894.438 172.974H894.484L897.352 164.24H900.648V175.662H898.391V170.256C898.391 170 898.393 169.706 898.398 169.373C898.409 169.039 898.445 168.154 898.508 166.717H898.438L895.492 175.662H893.273ZM909.531 175.662L909.211 174.545H909.086C908.831 174.951 908.469 175.266 908 175.49C907.531 175.709 906.997 175.818 906.398 175.818C905.372 175.818 904.599 175.545 904.078 174.998C903.557 174.446 903.297 173.654 903.297 172.623V166.927H905.68V172.029C905.68 172.659 905.792 173.133 906.016 173.451C906.24 173.763 906.596 173.92 907.086 173.92C907.753 173.92 908.234 173.698 908.531 173.256C908.828 172.808 908.977 172.068 908.977 171.037V166.927H911.359V175.662H909.531ZM916.242 175.662H913.859V163.506H916.242V175.662ZM924.297 175.662L923.836 174.474H923.773C923.372 174.98 922.958 175.331 922.531 175.529C922.109 175.722 921.557 175.818 920.875 175.818C920.036 175.818 919.375 175.579 918.891 175.099C918.411 174.62 918.172 173.938 918.172 173.052C918.172 172.125 918.495 171.443 919.141 171.006C919.792 170.563 920.771 170.318 922.078 170.271L923.594 170.224V169.842C923.594 168.956 923.141 168.513 922.234 168.513C921.536 168.513 920.716 168.724 919.773 169.146L918.984 167.537C919.99 167.011 921.104 166.748 922.328 166.748C923.5 166.748 924.398 167.003 925.023 167.513C925.648 168.024 925.961 168.8 925.961 169.842V175.662H924.297ZM923.594 171.615L922.672 171.646C921.979 171.667 921.464 171.792 921.125 172.021C920.786 172.25 920.617 172.599 920.617 173.068C920.617 173.74 921.003 174.076 921.773 174.076C922.326 174.076 922.766 173.917 923.094 173.599C923.427 173.282 923.594 172.86 923.594 172.334V171.615ZM928.32 164.67C928.32 163.894 928.753 163.506 929.617 163.506C930.482 163.506 930.914 163.894 930.914 164.67C930.914 165.039 930.805 165.329 930.586 165.537C930.372 165.74 930.049 165.842 929.617 165.842C928.753 165.842 928.32 165.451 928.32 164.67ZM930.805 175.662H928.422V166.927H930.805V175.662ZM947.133 169.842C947.133 171.722 946.596 173.162 945.523 174.162C944.456 175.162 942.911 175.662 940.891 175.662H937.656V164.24H941.242C943.107 164.24 944.555 164.732 945.586 165.717C946.617 166.701 947.133 168.076 947.133 169.842ZM944.617 169.904C944.617 167.451 943.534 166.224 941.367 166.224H940.078V173.662H941.117C943.451 173.662 944.617 172.409 944.617 169.904ZM954.859 175.662L954.398 174.474H954.336C953.935 174.98 953.521 175.331 953.094 175.529C952.672 175.722 952.12 175.818 951.438 175.818C950.599 175.818 949.938 175.579 949.453 175.099C948.974 174.62 948.734 173.938 948.734 173.052C948.734 172.125 949.057 171.443 949.703 171.006C950.354 170.563 951.333 170.318 952.641 170.271L954.156 170.224V169.842C954.156 168.956 953.703 168.513 952.797 168.513C952.099 168.513 951.279 168.724 950.336 169.146L949.547 167.537C950.552 167.011 951.667 166.748 952.891 166.748C954.062 166.748 954.961 167.003 955.586 167.513C956.211 168.024 956.523 168.8 956.523 169.842V175.662H954.859ZM954.156 171.615L953.234 171.646C952.542 171.667 952.026 171.792 951.688 172.021C951.349 172.25 951.18 172.599 951.18 173.068C951.18 173.74 951.565 174.076 952.336 174.076C952.888 174.076 953.328 173.917 953.656 173.599C953.99 173.282 954.156 172.86 954.156 172.334V171.615ZM963.859 166.763C964.182 166.763 964.451 166.787 964.664 166.834L964.484 169.068C964.292 169.016 964.057 168.99 963.781 168.99C963.021 168.99 962.427 169.185 962 169.576C961.578 169.967 961.367 170.513 961.367 171.217V175.662H958.984V166.927H960.789L961.141 168.396H961.258C961.529 167.907 961.893 167.513 962.352 167.217C962.815 166.914 963.318 166.763 963.859 166.763ZM966.148 164.67C966.148 163.894 966.581 163.506 967.445 163.506C968.31 163.506 968.742 163.894 968.742 164.67C968.742 165.039 968.633 165.329 968.414 165.537C968.201 165.74 967.878 165.842 967.445 165.842C966.581 165.842 966.148 165.451 966.148 164.67ZM968.633 175.662H966.25V166.927H968.633V175.662ZM982.227 172.49C982.227 173.521 981.854 174.334 981.109 174.927C980.37 175.521 979.339 175.818 978.016 175.818C976.797 175.818 975.719 175.589 974.781 175.131V172.881C975.552 173.224 976.203 173.467 976.734 173.607C977.271 173.748 977.76 173.818 978.203 173.818C978.734 173.818 979.141 173.717 979.422 173.513C979.708 173.31 979.852 173.008 979.852 172.607C979.852 172.383 979.789 172.185 979.664 172.013C979.539 171.836 979.354 171.667 979.109 171.506C978.87 171.344 978.378 171.086 977.633 170.732C976.935 170.404 976.411 170.089 976.062 169.787C975.714 169.485 975.435 169.133 975.227 168.732C975.018 168.331 974.914 167.862 974.914 167.326C974.914 166.316 975.255 165.521 975.938 164.943C976.625 164.365 977.573 164.076 978.781 164.076C979.375 164.076 979.94 164.146 980.477 164.287C981.018 164.427 981.583 164.625 982.172 164.881L981.391 166.763C980.781 166.513 980.276 166.339 979.875 166.24C979.479 166.141 979.089 166.092 978.703 166.092C978.245 166.092 977.893 166.198 977.648 166.412C977.404 166.625 977.281 166.904 977.281 167.248C977.281 167.461 977.331 167.649 977.43 167.81C977.529 167.967 977.685 168.12 977.898 168.271C978.117 168.417 978.63 168.683 979.438 169.068C980.505 169.579 981.237 170.092 981.633 170.607C982.029 171.118 982.227 171.745 982.227 172.49ZM987.727 168.459C987.221 168.459 986.826 168.62 986.539 168.943C986.253 169.261 986.089 169.714 986.047 170.302H989.391C989.38 169.714 989.227 169.261 988.93 168.943C988.633 168.62 988.232 168.459 987.727 168.459ZM988.062 175.818C986.656 175.818 985.557 175.43 984.766 174.654C983.974 173.878 983.578 172.779 983.578 171.357C983.578 169.894 983.943 168.763 984.672 167.967C985.406 167.164 986.419 166.763 987.711 166.763C988.945 166.763 989.906 167.115 990.594 167.818C991.281 168.521 991.625 169.493 991.625 170.732V171.888H985.992C986.018 172.566 986.219 173.094 986.594 173.474C986.969 173.855 987.495 174.045 988.172 174.045C988.698 174.045 989.195 173.99 989.664 173.881C990.133 173.771 990.622 173.597 991.133 173.357V175.201C990.716 175.409 990.271 175.563 989.797 175.662C989.323 175.766 988.745 175.818 988.062 175.818ZM995.852 170.912L996.891 169.584L999.336 166.927H1002.02L998.555 170.717L1002.23 175.662H999.484L996.969 172.123L995.945 172.943V175.662H993.562V163.506H995.945V168.927L995.82 170.912H995.852ZM1009.03 175.662L1008.57 174.474H1008.51C1008.11 174.98 1007.69 175.331 1007.27 175.529C1006.84 175.722 1006.29 175.818 1005.61 175.818C1004.77 175.818 1004.11 175.579 1003.62 175.099C1003.15 174.62 1002.91 173.938 1002.91 173.052C1002.91 172.125 1003.23 171.443 1003.88 171.006C1004.53 170.563 1005.51 170.318 1006.81 170.271L1008.33 170.224V169.842C1008.33 168.956 1007.88 168.513 1006.97 168.513C1006.27 168.513 1005.45 168.724 1004.51 169.146L1003.72 167.537C1004.72 167.011 1005.84 166.748 1007.06 166.748C1008.23 166.748 1009.13 167.003 1009.76 167.513C1010.38 168.024 1010.7 168.8 1010.7 169.842V175.662H1009.03ZM1008.33 171.615L1007.41 171.646C1006.71 171.667 1006.2 171.792 1005.86 172.021C1005.52 172.25 1005.35 172.599 1005.35 173.068C1005.35 173.74 1005.74 174.076 1006.51 174.076C1007.06 174.076 1007.5 173.917 1007.83 173.599C1008.16 173.282 1008.33 172.86 1008.33 172.334V171.615ZM1018.03 166.763C1018.35 166.763 1018.62 166.787 1018.84 166.834L1018.66 169.068C1018.46 169.016 1018.23 168.99 1017.95 168.99C1017.19 168.99 1016.6 169.185 1016.17 169.576C1015.75 169.967 1015.54 170.513 1015.54 171.217V175.662H1013.16V166.927H1014.96L1015.31 168.396H1015.43C1015.7 167.907 1016.07 167.513 1016.52 167.217C1016.99 166.914 1017.49 166.763 1018.03 166.763ZM1025.97 175.662L1025.51 174.474H1025.45C1025.04 174.98 1024.63 175.331 1024.2 175.529C1023.78 175.722 1023.23 175.818 1022.55 175.818C1021.71 175.818 1021.05 175.579 1020.56 175.099C1020.08 174.62 1019.84 173.938 1019.84 173.052C1019.84 172.125 1020.17 171.443 1020.81 171.006C1021.46 170.563 1022.44 170.318 1023.75 170.271L1025.27 170.224V169.842C1025.27 168.956 1024.81 168.513 1023.91 168.513C1023.21 168.513 1022.39 168.724 1021.45 169.146L1020.66 167.537C1021.66 167.011 1022.78 166.748 1024 166.748C1025.17 166.748 1026.07 167.003 1026.7 167.513C1027.32 168.024 1027.63 168.8 1027.63 169.842V175.662H1025.97ZM1025.27 171.615L1024.34 171.646C1023.65 171.667 1023.14 171.792 1022.8 172.021C1022.46 172.25 1022.29 172.599 1022.29 173.068C1022.29 173.74 1022.67 174.076 1023.45 174.076C1024 174.076 1024.44 173.917 1024.77 173.599C1025.1 173.282 1025.27 172.86 1025.27 172.334V171.615ZM1038.16 175.662H1035.77V170.56C1035.77 169.93 1035.66 169.459 1035.44 169.146C1035.21 168.829 1034.86 168.67 1034.37 168.67C1033.7 168.67 1033.22 168.894 1032.92 169.342C1032.62 169.784 1032.48 170.521 1032.48 171.552V175.662H1030.09V166.927H1031.91L1032.23 168.045H1032.37C1032.63 167.623 1033 167.305 1033.46 167.092C1033.93 166.873 1034.46 166.763 1035.05 166.763C1036.07 166.763 1036.84 167.039 1037.37 167.592C1037.89 168.138 1038.16 168.93 1038.16 169.967V175.662ZM1048.21 166.927V168.138L1046.84 168.49C1047.09 168.881 1047.22 169.318 1047.22 169.802C1047.22 170.74 1046.89 171.472 1046.23 171.998C1045.58 172.519 1044.68 172.779 1043.52 172.779L1043.09 172.756L1042.73 172.717C1042.49 172.904 1042.37 173.112 1042.37 173.342C1042.37 173.685 1042.8 173.857 1043.68 173.857H1045.16C1046.12 173.857 1046.85 174.063 1047.35 174.474C1047.86 174.886 1048.11 175.49 1048.11 176.287C1048.11 177.308 1047.68 178.099 1046.83 178.662C1045.98 179.224 1044.76 179.506 1043.16 179.506C1041.95 179.506 1041.01 179.292 1040.37 178.865C1039.73 178.443 1039.41 177.849 1039.41 177.084C1039.41 176.558 1039.57 176.118 1039.9 175.763C1040.23 175.409 1040.71 175.157 1041.34 175.006C1041.1 174.901 1040.89 174.732 1040.7 174.498C1040.52 174.258 1040.43 174.006 1040.43 173.74C1040.43 173.407 1040.53 173.131 1040.72 172.912C1040.91 172.688 1041.19 172.469 1041.55 172.256C1041.1 172.058 1040.73 171.74 1040.46 171.302C1040.2 170.865 1040.06 170.349 1040.06 169.756C1040.06 168.802 1040.37 168.066 1040.99 167.545C1041.61 167.024 1042.5 166.763 1043.65 166.763C1043.89 166.763 1044.18 166.787 1044.52 166.834C1044.85 166.875 1045.07 166.907 1045.16 166.927H1048.21ZM1041.47 176.896C1041.47 177.224 1041.62 177.482 1041.94 177.67C1042.26 177.857 1042.7 177.951 1043.27 177.951C1044.12 177.951 1044.79 177.834 1045.27 177.599C1045.76 177.365 1046 177.045 1046 176.638C1046 176.31 1045.86 176.084 1045.57 175.959C1045.28 175.834 1044.84 175.771 1044.24 175.771H1043.01C1042.57 175.771 1042.2 175.873 1041.91 176.076C1041.61 176.284 1041.47 176.558 1041.47 176.896ZM1042.34 169.787C1042.34 170.261 1042.44 170.636 1042.66 170.912C1042.88 171.188 1043.21 171.326 1043.65 171.326C1044.1 171.326 1044.42 171.188 1044.63 170.912C1044.84 170.636 1044.95 170.261 1044.95 169.787C1044.95 168.735 1044.51 168.209 1043.65 168.209C1042.77 168.209 1042.34 168.735 1042.34 169.787Z" fill="#796EAF"/>
<path d="M115.803 237.6C65.8759 260.01 20.5718 228.263 4.16058 209.588C1.38686 205.986 0.23114 203.086 -4.01769e-06 202.086L0 294L1140 294L1140 1.12042e-05C1103.48 69.8628 1011.16 212.09 934.051 222.094C837.664 234.6 735.73 187.578 610.912 237.6C486.095 287.622 389.015 259.109 331.46 237.6C273.905 216.092 178.212 209.588 115.803 237.6Z" fill="white" fill-opacity="0.05"/>
</svg>
