<svg width="24" height="25" viewBox="0 0 24 25" fill="none" xmlns="http://www.w3.org/2000/svg">
<path d="M17 2.49316H7C4.23858 2.49316 2 4.73568 2 7.50196V17.5196C2 20.2858 4.23858 22.5283 7 22.5283H17C19.7614 22.5283 22 20.2858 22 17.5196V7.50196C22 4.73568 19.7614 2.49316 17 2.49316Z" stroke="#9EA0A5" stroke-width="2.33333" stroke-linecap="round" stroke-linejoin="round"/>
<path d="M15.9997 11.8797C16.1231 12.7134 15.981 13.5649 15.5935 14.313C15.206 15.0611 14.5929 15.6678 13.8413 16.0467C13.0898 16.4256 12.2382 16.5575 11.4075 16.4236C10.5768 16.2897 9.80947 15.8969 9.21455 15.3009C8.61962 14.7049 8.22744 13.9362 8.09377 13.1041C7.96011 12.272 8.09177 11.4188 8.47003 10.666C8.84829 9.91312 9.45389 9.29893 10.2007 8.91075C10.9475 8.52257 11.7975 8.38017 12.6297 8.5038C13.4786 8.6299 14.2646 9.02618 14.8714 9.63409C15.4782 10.242 15.8738 11.0293 15.9997 11.8797Z" stroke="#9EA0A5" stroke-width="2.33333" stroke-linecap="round" stroke-linejoin="round"/>
<path d="M17.5 7.00122H17.51" stroke="#9EA0A5" stroke-width="2.33333" stroke-linecap="round" stroke-linejoin="round"/>
</svg>
