<svg width="24" height="25" viewBox="0 0 24 25" fill="none" xmlns="http://www.w3.org/2000/svg">
<g clip-path="url(#clip0_15396_1476)">
<path d="M16 22.6129V18.736C16.0375 18.2584 15.9731 17.7782 15.811 17.3274C15.6489 16.8766 15.3929 16.4655 15.06 16.1215C18.2 15.7708 21.5 14.5787 21.5 9.10914C21.4997 7.71051 20.9627 6.36552 20 5.35254C20.4559 4.1289 20.4236 2.77637 19.91 1.57591C19.91 1.57591 18.73 1.2253 16 3.05852C13.708 2.43624 11.292 2.43624 9 3.05852C6.27 1.2253 5.09 1.57591 5.09 1.57591C4.57638 2.77637 4.54414 4.1289 5 5.35254C4.03013 6.37304 3.49252 7.73018 3.5 9.13919C3.5 14.5687 6.8 15.7608 9.94 16.1515C9.611 16.4921 9.35726 16.8982 9.19531 17.3435C9.03335 17.7888 8.96681 18.2633 9 18.736V22.6129M9 19.6076C4 21.1102 4 17.1032 2 16.6023L9 19.6076Z" stroke="#9EA0A5" stroke-width="2.33333" stroke-linecap="round" stroke-linejoin="round"/>
</g>
<defs>
<clipPath id="clip0_15396_1476">
<rect width="24" height="24.0422" fill="white" transform="translate(0 0.574219)"/>
</clipPath>
</defs>
</svg>
