<svg width="24" height="24" viewBox="0 0 24 24" fill="none" xmlns="http://www.w3.org/2000/svg">
<g clip-path="url(#clip0_15396_612)">
<path d="M21.3684 21.7516C17.696 24.7495 6.22904 24.7495 2.63155 21.7516C-1.04088 18.7537 -0.666144 5.93775 2.63155 2.56512C5.92924 -0.807513 18.0707 -0.807513 21.3684 2.56512C24.6661 5.93775 25.0408 18.7538 21.3684 21.7516Z" fill="#5E50A1"/>
<g opacity="0.2">
<path opacity="0.2" d="M12.075 16.5053C8.77728 19.1284 5.10486 20.4775 1.65729 20.5524C-0.89094 16.2055 -0.366285 5.63791 2.63161 2.56508C5.32972 -0.207961 13.7988 -0.732616 18.6704 0.991167C19.8695 5.93771 17.3962 12.2332 12.075 16.5053Z" fill="white"/>
</g>
<path d="M10.9142 18C10.4784 18 10.0427 17.8145 9.79364 17.4436L6.30732 12.9926C5.80926 12.3744 5.9338 11.5089 6.55635 11.0143C7.1789 10.5198 8.05048 10.6434 8.54854 11.2616L10.9142 14.2908L16.1438 7.55245C16.6418 6.93426 17.5134 6.8106 18.136 7.30516C18.7585 7.79973 18.883 8.66521 18.385 9.2834L12.0349 17.4436C11.7236 17.7527 11.3501 18 10.9142 18Z" fill="white"/>
</g>
<defs>
<clipPath id="clip0_15396_612">
<rect width="24" height="24" rx="12" fill="white"/>
</clipPath>
</defs>
</svg>
