<svg width="24" height="25" viewBox="0 0 24 25" fill="none" xmlns="http://www.w3.org/2000/svg">
<g clip-path="url(#clip0_15396_1474)">
<path d="M22.6501 15.0741L12.0001 22.8277L1.35014 15.0741C1.20737 14.9689 1.10146 14.8211 1.04758 14.652C0.993694 14.4829 0.994592 14.301 1.05014 14.1324L2.27014 10.3458L4.71014 2.82255C4.73381 2.76125 4.77148 2.70636 4.82014 2.66227C4.89938 2.58976 5.00282 2.54956 5.11014 2.54956C5.21746 2.54956 5.3209 2.58976 5.40014 2.66227C5.45153 2.71202 5.48939 2.77408 5.51014 2.84259L7.95014 10.3458H16.0501L18.4901 2.82255C18.5138 2.76125 18.5515 2.70636 18.6001 2.66227C18.6794 2.58976 18.7828 2.54956 18.8901 2.54956C18.9975 2.54956 19.1009 2.58976 19.1801 2.66227C19.2315 2.71202 19.2694 2.77408 19.2901 2.84259L21.7301 10.3658L23.0001 14.1324C23.0507 14.3062 23.0439 14.4917 22.9808 14.6613C22.9178 14.8309 22.8018 14.9757 22.6501 15.0741V15.0741Z" stroke="#9EA0A5" stroke-width="2.33333" stroke-linecap="round" stroke-linejoin="round"/>
</g>
<defs>
<clipPath id="clip0_15396_1474">
<rect width="24" height="24.0422" fill="white" transform="translate(0 0.658691)"/>
</clipPath>
</defs>
</svg>
